<svg width="32" height="32" viewBox="0 0 32 32" fill="none" xmlns="http://www.w3.org/2000/svg">
<path d="M20 7C20 8.10457 20.8954 9 22 9H26C27.1046 9 28 9.89543 28 11V15C28 16.1046 27.1046 17 26 17H22C20.8954 17 20 17.8954 20 19C20 20.1046 20.8954 21 22 21H26C27.1046 21 28 21.8954 28 23V27C28 28.1046 27.1046 29 26 29H22C20.8954 29 20 28.1046 20 27V25C20 23.8954 19.1046 23 18 23H10C8.89543 23 8 22.1046 8 21V17C8 15.8954 8.89543 15 10 15H18C19.1046 15 20 14.1046 20 13C20 11.8954 19.1046 11 18 11H6C4.89543 11 4 10.1046 4 9V5C4 3.89543 4.89543 3 6 3H18C19.1046 3 20 3.89543 20 5V7Z" fill="black"/>
</svg>
